<mxfile host="Electron" modified="2024-02-05T12:13:57.168Z" agent="Mozilla/5.0 (Macintosh; Intel Mac OS X 10_15_7) AppleWebKit/537.36 (KHTML, like Gecko) draw.io/23.0.2 Chrome/120.0.6099.109 Electron/28.1.0 Safari/537.36" etag="CKoxPwr_6LuPM0UtM65m" version="23.0.2" type="device">
  <diagram name="Page-1" id="jpZyZ7Mw79yToLI05roK">
    <mxGraphModel dx="1804" dy="1682" grid="1" gridSize="10" guides="1" tooltips="1" connect="1" arrows="1" fold="1" page="1" pageScale="1" pageWidth="850" pageHeight="1100" math="0" shadow="0">
      <root>
        <mxCell id="0" />
        <mxCell id="1" parent="0" />
        <mxCell id="vKE8g0IUJA0ARIYOYFgh-3" value="" style="rounded=0;whiteSpace=wrap;html=1;strokeColor=#000000;fontColor=#000000;" vertex="1" parent="1">
          <mxGeometry x="10" y="320" width="160" height="190" as="geometry" />
        </mxCell>
        <mxCell id="vKE8g0IUJA0ARIYOYFgh-4" value="&lt;h1&gt;MC&lt;/h1&gt;" style="text;html=1;strokeColor=#000000;fillColor=none;align=center;verticalAlign=middle;whiteSpace=wrap;rounded=0;fontColor=#000000;" vertex="1" parent="1">
          <mxGeometry x="60" y="290" width="60" height="30" as="geometry" />
        </mxCell>
        <mxCell id="vKE8g0IUJA0ARIYOYFgh-5" value="" style="rounded=0;whiteSpace=wrap;html=1;strokeColor=#000000;fontColor=#000000;" vertex="1" parent="1">
          <mxGeometry x="400" y="365" width="160" height="80" as="geometry" />
        </mxCell>
        <mxCell id="vKE8g0IUJA0ARIYOYFgh-6" value="&lt;h2&gt;Reconstructed Energy in MC&lt;/h2&gt;" style="text;html=1;strokeColor=#000000;fillColor=none;align=center;verticalAlign=middle;whiteSpace=wrap;rounded=0;fontColor=#000000;" vertex="1" parent="1">
          <mxGeometry x="400" y="375" width="160" height="60" as="geometry" />
        </mxCell>
        <mxCell id="vKE8g0IUJA0ARIYOYFgh-8" value="&lt;h1&gt;Inputs:&lt;/h1&gt;&lt;h2&gt;&lt;ul&gt;&lt;li style=&quot;text-align: left;&quot;&gt;Shower width variables&lt;/li&gt;&lt;li style=&quot;text-align: left;&quot;&gt;Shower depth variables&lt;/li&gt;&lt;li style=&quot;text-align: left;&quot;&gt;etc&lt;/li&gt;&lt;/ul&gt;&lt;/h2&gt;&lt;div&gt;&lt;br&gt;&lt;/div&gt;" style="text;html=1;strokeColor=#000000;fillColor=none;align=center;verticalAlign=middle;whiteSpace=wrap;rounded=0;fontColor=#000000;" vertex="1" parent="1">
          <mxGeometry x="-10" y="360" width="200" height="120" as="geometry" />
        </mxCell>
        <mxCell id="vKE8g0IUJA0ARIYOYFgh-11" value="" style="rounded=0;whiteSpace=wrap;html=1;strokeColor=#000000;fontColor=#000000;" vertex="1" parent="1">
          <mxGeometry x="400" y="95" width="160" height="80" as="geometry" />
        </mxCell>
        <mxCell id="vKE8g0IUJA0ARIYOYFgh-12" value="&lt;h2&gt;Reconstructed Energy in Data&lt;/h2&gt;" style="text;html=1;strokeColor=#000000;fillColor=none;align=center;verticalAlign=middle;whiteSpace=wrap;rounded=0;fontColor=#000000;" vertex="1" parent="1">
          <mxGeometry x="410" y="107.5" width="140" height="52.5" as="geometry" />
        </mxCell>
        <mxCell id="vKE8g0IUJA0ARIYOYFgh-15" value="" style="rounded=0;whiteSpace=wrap;html=1;strokeColor=#000000;fontColor=#000000;" vertex="1" parent="1">
          <mxGeometry x="10" y="60" width="160" height="190" as="geometry" />
        </mxCell>
        <mxCell id="vKE8g0IUJA0ARIYOYFgh-16" value="&lt;h1&gt;Recorded Data&lt;/h1&gt;" style="text;html=1;strokeColor=#000000;fillColor=none;align=center;verticalAlign=middle;whiteSpace=wrap;rounded=0;fontColor=#000000;" vertex="1" parent="1">
          <mxGeometry x="20" y="20" width="140" height="30" as="geometry" />
        </mxCell>
        <mxCell id="vKE8g0IUJA0ARIYOYFgh-17" value="&lt;h1&gt;Inputs:&lt;/h1&gt;&lt;h2&gt;&lt;ul&gt;&lt;li style=&quot;text-align: left;&quot;&gt;Shower width variables&lt;/li&gt;&lt;li style=&quot;text-align: left;&quot;&gt;Shower depth variables&lt;/li&gt;&lt;li style=&quot;text-align: left;&quot;&gt;etc&lt;/li&gt;&lt;/ul&gt;&lt;/h2&gt;&lt;div&gt;&lt;br&gt;&lt;/div&gt;" style="text;html=1;strokeColor=#000000;fillColor=none;align=center;verticalAlign=middle;whiteSpace=wrap;rounded=0;fontColor=#000000;" vertex="1" parent="1">
          <mxGeometry x="-10" y="100" width="200" height="120" as="geometry" />
        </mxCell>
        <mxCell id="vKE8g0IUJA0ARIYOYFgh-18" value="" style="shape=flexArrow;endArrow=classic;startArrow=classic;html=1;rounded=0;strokeColor=#000000;fontColor=#000000;" edge="1" parent="1">
          <mxGeometry width="100" height="100" relative="1" as="geometry">
            <mxPoint x="480" y="360" as="sourcePoint" />
            <mxPoint x="480" y="180" as="targetPoint" />
          </mxGeometry>
        </mxCell>
        <mxCell id="vKE8g0IUJA0ARIYOYFgh-19" value="&lt;h2&gt;Adversary: Is this data or MC?&lt;/h2&gt;" style="text;html=1;strokeColor=#000000;fillColor=none;align=center;verticalAlign=middle;whiteSpace=wrap;rounded=0;fontColor=#000000;" vertex="1" parent="1">
          <mxGeometry x="490" y="250" width="100" height="50" as="geometry" />
        </mxCell>
        <mxCell id="vKE8g0IUJA0ARIYOYFgh-20" value="" style="endArrow=classic;html=1;rounded=0;strokeWidth=4;strokeColor=#000000;fontColor=#000000;" edge="1" parent="1">
          <mxGeometry width="50" height="50" relative="1" as="geometry">
            <mxPoint x="620" y="270" as="sourcePoint" />
            <mxPoint x="360" y="520" as="targetPoint" />
            <Array as="points">
              <mxPoint x="620" y="640" />
              <mxPoint x="360" y="640" />
            </Array>
          </mxGeometry>
        </mxCell>
        <mxCell id="vKE8g0IUJA0ARIYOYFgh-21" value="" style="endArrow=classic;html=1;rounded=0;exitX=1;exitY=0.5;exitDx=0;exitDy=0;strokeWidth=4;strokeColor=#000000;fontColor=#000000;" edge="1" parent="1" source="vKE8g0IUJA0ARIYOYFgh-8">
          <mxGeometry width="50" height="50" relative="1" as="geometry">
            <mxPoint x="400" y="260" as="sourcePoint" />
            <mxPoint x="390" y="420" as="targetPoint" />
          </mxGeometry>
        </mxCell>
        <mxCell id="vKE8g0IUJA0ARIYOYFgh-22" value="" style="rounded=0;whiteSpace=wrap;html=1;strokeColor=#000000;fontColor=#000000;" vertex="1" parent="1">
          <mxGeometry x="400" y="520" width="160" height="80" as="geometry" />
        </mxCell>
        <mxCell id="vKE8g0IUJA0ARIYOYFgh-23" value="&lt;h2&gt;True Energy in MC&lt;/h2&gt;" style="text;html=1;strokeColor=#000000;fillColor=none;align=center;verticalAlign=middle;whiteSpace=wrap;rounded=0;fontColor=#000000;" vertex="1" parent="1">
          <mxGeometry x="400" y="530" width="160" height="60" as="geometry" />
        </mxCell>
        <mxCell id="vKE8g0IUJA0ARIYOYFgh-24" value="" style="endArrow=classic;startArrow=classic;html=1;rounded=0;exitX=0.5;exitY=0;exitDx=0;exitDy=0;strokeWidth=4;strokeColor=#000000;fontColor=#000000;" edge="1" parent="1" source="vKE8g0IUJA0ARIYOYFgh-22">
          <mxGeometry width="50" height="50" relative="1" as="geometry">
            <mxPoint x="400" y="380" as="sourcePoint" />
            <mxPoint x="480" y="450" as="targetPoint" />
          </mxGeometry>
        </mxCell>
        <mxCell id="vKE8g0IUJA0ARIYOYFgh-25" value="&lt;h2&gt;ML regression&lt;/h2&gt;" style="text;html=1;strokeColor=#000000;fillColor=none;align=center;verticalAlign=middle;whiteSpace=wrap;rounded=0;fontColor=#000000;" vertex="1" parent="1">
          <mxGeometry x="250" y="380" width="60" height="30" as="geometry" />
        </mxCell>
        <mxCell id="vKE8g0IUJA0ARIYOYFgh-26" value="" style="endArrow=classic;html=1;rounded=0;exitX=1;exitY=0.5;exitDx=0;exitDy=0;strokeWidth=4;strokeColor=#000000;fontColor=#000000;" edge="1" parent="1">
          <mxGeometry width="50" height="50" relative="1" as="geometry">
            <mxPoint x="190" y="134.5" as="sourcePoint" />
            <mxPoint x="390" y="134.5" as="targetPoint" />
          </mxGeometry>
        </mxCell>
        <mxCell id="vKE8g0IUJA0ARIYOYFgh-27" value="&lt;h2&gt;ML regression&lt;/h2&gt;" style="text;html=1;strokeColor=#000000;fillColor=none;align=center;verticalAlign=middle;whiteSpace=wrap;rounded=0;fontColor=#000000;" vertex="1" parent="1">
          <mxGeometry x="250" y="95" width="60" height="30" as="geometry" />
        </mxCell>
        <mxCell id="vKE8g0IUJA0ARIYOYFgh-28" value="&lt;h2&gt;ML Regression Figure of Merit&lt;/h2&gt;" style="text;html=1;strokeColor=#000000;fillColor=none;align=center;verticalAlign=middle;whiteSpace=wrap;rounded=0;fontColor=#000000;" vertex="1" parent="1">
          <mxGeometry x="320" y="470" width="150" height="30" as="geometry" />
        </mxCell>
        <mxCell id="vKE8g0IUJA0ARIYOYFgh-29" value="&lt;h2&gt;Truth-Reco difference&lt;/h2&gt;" style="text;html=1;strokeColor=#000000;fillColor=none;align=center;verticalAlign=middle;whiteSpace=wrap;rounded=0;fontColor=#000000;" vertex="1" parent="1">
          <mxGeometry x="480" y="470" width="150" height="30" as="geometry" />
        </mxCell>
        <mxCell id="vKE8g0IUJA0ARIYOYFgh-31" value="&lt;h2 style=&quot;border-color: rgb(0, 0, 0); color: rgb(240, 240, 240); font-family: Helvetica; font-style: normal; font-variant-ligatures: normal; font-variant-caps: normal; letter-spacing: normal; orphans: 2; text-align: center; text-indent: 0px; text-transform: none; widows: 2; word-spacing: 0px; -webkit-text-stroke-width: 0px; background-color: rgb(27, 29, 30); text-decoration-thickness: initial; text-decoration-style: initial; text-decoration-color: initial;&quot;&gt;Adversary Figure of Merit: Data-MC Difference&lt;/h2&gt;" style="text;whiteSpace=wrap;html=1;" vertex="1" parent="1">
          <mxGeometry x="350" y="630" width="290" height="70" as="geometry" />
        </mxCell>
      </root>
    </mxGraphModel>
  </diagram>
</mxfile>
